<svg height="512" viewBox="0 0 100 100" width="512" xmlns="http://www.w3.org/2000/svg"><g id="Layer_12_copy_4" data-name="Layer 12 copy 4"><path d="m79.4 51.21a16.81 16.81 0 0 0 -7 1.53l-4.4-8 4.4-5.94a1.26 1.26 0 0 0 .13-1.27c-10.05-21.48-32.83-15.9-33.06-15.84a1.22 1.22 0 0 0 -.87.81l-4.71 14.12-12.89 6.78a1.24 1.24 0 0 0 -.61 1.46l1.18 4a1.26 1.26 0 0 0 1.43.84l1.31-.29-.56 2.1a17.47 17.47 0 0 0 -3.17-.3 16.88 16.88 0 1 0 5.58 1l.9-3.35 1.58-.34 16.75 19.13a7.53 7.53 0 1 0 13.35 4.87l4.26-.66a16.85 16.85 0 1 0 16.4-20.65zm-44.4 16.85a14.35 14.35 0 1 1 -14.4-14.35 14.73 14.73 0 0 1 2.51.23l-3.71 13.79a1.25 1.25 0 0 0 .88 1.54 1.22 1.22 0 0 0 .32 0 1.26 1.26 0 0 0 1.21-.93l3.71-13.79a14.37 14.37 0 0 1 9.48 13.51zm42.49-1-12.4 1.94c0-.32 0-.63 0-1a14.36 14.36 0 0 1 6.38-11.93zm-53.87-20.06-.55-1.88 12.43-6.52a1.21 1.21 0 0 0 .6-.71l4.64-13.89c3.56-.71 20.82-3 29.26 13.91l-12.14 16.35a1.11 1.11 0 0 0 -.24.63l-1.36 15.48-2 .32-1.86-16 4.79-14.33a1.25 1.25 0 0 0 -.06-1 1.23 1.23 0 0 0 -.73-.63l-10-3.34a1.25 1.25 0 0 0 -1.4.43l-5.9 7.84zm29.92-3.67h-11.1l4-5.29 8 2.67zm-22.09 4.54 8.6-1.87a1.28 1.28 0 0 0 .42-.17h12.23l-2.77 8.28a1.28 1.28 0 0 0 -.06.55l1.19 10.22a7.53 7.53 0 0 0 -3.78 1.12zm19.77 29.58a5 5 0 1 1 0-10.06h.13l.57 4.86a1.27 1.27 0 0 0 1.24 1.11h.19l2.85-.44a5 5 0 0 1 -4.98 4.53zm7.59-7.45 1.27-14.52 6.3-8.48 3.84 7a16.86 16.86 0 0 0 -7.68 14.12c0 .45 0 .89.07 1.33zm20.59 12.41a14.37 14.37 0 0 1 -13.93-10.93l14.12-2.19a1.24 1.24 0 0 0 .9-1.83l-6.88-12.53a14.35 14.35 0 1 1 5.79 27.48zm-51.78-50.23a8.55 8.55 0 1 0 -8.55-8.54 8.56 8.56 0 0 0 8.55 8.54zm0-14.59a6 6 0 1 1 -6.05 6.05 6.05 6.05 0 0 1 6.05-6.05z"/></g></svg>