<svg clip-rule="evenodd" fill-rule="evenodd" height="512" image-rendering="optimizeQuality" shape-rendering="geometricPrecision" text-rendering="geometricPrecision" viewBox="0 0 512 512" width="512" xmlns="http://www.w3.org/2000/svg" xmlns:xodm="http://www.corel.com/coreldraw/odm/2003"><g id="Layer_x0020_1"><g id="_1818300544800"><path d="m104.36 418.32c-57.52 0-104.32-46.79-104.32-104.31s46.8-104.31 104.32-104.31c18.63 0 36.13 4.92 51.29 13.51l-20.62 23.8c-9.34-4.29-19.73-6.69-30.67-6.69-40.64 0-73.7 33.06-73.7 73.69 0 40.64 33.06 73.7 73.7 73.7 34.81 0 64.06-24.27 71.73-56.77h31.2c-8.11 49.49-51.18 87.38-102.93 87.38zm75.03-176.7c15.26 15.82 25.58 36.43 28.46 59.32h-30.96c-2.46-13.7-8.73-26.09-17.65-36.05zm-84.21 95.14c-11.48 0-20.83-9.34-20.83-20.82 0-10.88 8.39-19.84 19.03-20.75.26-.35.53-.7.82-1.04l33.97-39.21c-7.36-2.98-15.4-4.63-23.81-4.63-35.13 0-63.7 28.58-63.7 63.7s28.57 63.7 63.7 63.7c29.26 0 53.97-19.84 61.41-46.77h-54.77c-.44 0-.89-.03-1.33-.06-3.75 3.64-8.86 5.88-14.49 5.88zm-4.47-30.68c-3.75 1.7-6.36 5.48-6.36 9.86 0 5.97 4.86 10.82 10.83 10.82 1.61 0 3.14-.35 4.51-.98-2.29-2.63-3.68-6.08-3.68-9.84 0-.13 0-.26 0-.38-.1-.08-.2-.17-.29-.25-2.84-2.46-4.52-5.77-5.01-9.23zm75.99-5.14c-2.24-10.71-7.18-20.43-14.06-28.43l-24.63 28.43z"/><path d="m407.65 418.32c-57.52 0-104.32-46.79-104.32-104.31 0-39.4 21.97-73.78 54.3-91.51l12.11 28.34c-21.43 12.9-35.79 36.39-35.79 63.17 0 40.64 33.06 73.7 73.7 73.7 40.63 0 73.69-33.06 73.69-73.7 0-40.63-33.06-73.69-73.69-73.69-3.23 0-6.4.21-9.52.61l-12.36-28.92c7.06-1.51 14.38-2.31 21.88-2.31 57.51 0 104.31 46.79 104.31 104.31s-46.8 104.31-104.31 104.31zm7.04-79.64c-11.48 0-20.82-9.34-20.82-20.82 0-2.63.49-5.15 1.38-7.47-.2-.39-.39-.79-.57-1.19l-20.97-49.07c-17.87 11.29-29.76 31.22-29.76 53.88 0 35.12 28.57 63.7 63.7 63.7 35.12 0 63.69-28.58 63.69-63.7s-28.57-63.7-63.69-63.7c-1.83 0-3.63.08-5.41.24l20.03 46.86c.17.41.33.82.46 1.24 7.5 3.15 12.79 10.57 12.79 19.21 0 11.48-9.34 20.82-20.83 20.82zm-10.82-21.1v.28c0 5.97 4.85 10.82 10.82 10.82s10.83-4.85 10.83-10.82c0-3.18-1.38-6.05-3.57-8.03-1.52 3.15-4.13 5.79-7.58 7.26-1.86.8-3.87 1.21-5.89 1.21-1.59 0-3.15-.25-4.61-.72z"/><path d="m257.49 309.06c-1.12 0-2.25-.38-3.18-1.15-2.13-1.76-2.43-4.91-.67-7.04l92.97-112.49h-155.23c-2.76 0-4.99-2.24-4.99-5s2.23-5 4.99-5h165.85c1.93 0 3.69 1.12 4.52 2.87.82 1.75.56 3.82-.67 5.31l-99.74 120.68c-.98 1.2-2.41 1.82-3.85 1.82z"/><path d="m229.87 309.12c-2.12 0-4.09-1.36-4.77-3.49l-47.88-150.22c-.84-2.63.62-5.44 3.25-6.28s5.44.61 6.28 3.24l47.88 150.23c.84 2.63-.61 5.44-3.24 6.28-.51.16-1.02.24-1.52.24z"/><path d="m243.72 351.32c-15.65 0-28.38-12.73-28.38-28.37 0-15.65 12.73-28.38 28.38-28.38 15.64 0 28.37 12.73 28.37 28.38 0 15.64-12.73 28.37-28.37 28.37z"/><path d="m221.54 320.94h-110.54c-2.76 0-4.99-2.24-4.99-5s2.23-5 4.99-5h110.54c2.76 0 5 2.24 5 5s-2.24 5-5 5zm-116-11.97c-1.16 0-2.33-.4-3.27-1.22-2.09-1.8-2.32-4.96-.51-7.05l88.47-102.15c1.81-2.08 4.97-2.31 7.05-.5 2.09 1.81 2.32 4.96.51 7.05l-88.47 102.15c-.99 1.14-2.38 1.72-3.78 1.72z"/><path d="m408.48 308.3c-1.94 0-3.79-1.14-4.6-3.03l-51.25-119.92c-1.09-2.54.09-5.48 2.63-6.57 2.54-1.08 5.48.1 6.56 2.64l51.25 119.92c1.09 2.54-.09 5.47-2.63 6.56-.64.27-1.31.4-1.96.4z"/><path d="m256.38 380.96c-1.94 0-3.79-1.14-4.6-3.04l-12.66-29.63c-1.09-2.54.09-5.48 2.63-6.56 2.54-1.09 5.48.09 6.56 2.63l12.66 29.63c1.09 2.54-.09 5.48-2.63 6.56-.64.28-1.31.41-1.96.41z"/><path d="m275.66 380.96h-33.99c-2.76 0-5-2.24-5-5 0-2.77 2.24-5 5-5h33.99c2.77 0 5 2.23 5 5 0 2.76-2.23 5-5 5z"/><path d="m357.23 188.38c-2.02 0-3.93-1.23-4.68-3.23-.16-.42-.92-1.84-1.52-2.98-4.53-8.51-8.43-16.65-6.44-22.68.76-2.32 2.32-4.1 4.51-5.14 14.35-6.85 24.48-28.36 20.8-38.35-2.79-7.54-13.61-6.38-22.19-4.07l-41.33 11.07c-2.67.71-5.41-.87-6.13-3.54-.71-2.66.87-5.4 3.54-6.12l41.33-11.07c24.04-6.46 31.72 3.66 34.16 10.27 5.69 15.42-7.48 41.6-25.26 50.53-.1 2.09 1.86 6.93 5.84 14.41 1 1.89 1.67 3.14 2.04 4.14.98 2.58-.33 5.46-2.91 6.44-.58.22-1.18.32-1.76.32z"/><path d="m335.12 128.34c-2.21 0-4.22-1.47-4.82-3.71l-6.61-24.66c-.71-2.67.87-5.41 3.54-6.12 2.67-.72 5.41.87 6.12 3.53l6.61 24.67c.71 2.66-.87 5.4-3.54 6.12-.43.12-.87.17-1.3.17z"/><path d="m178.96 158.93c-4.16 0-8.4-.21-11.95-.59-16.86-1.83-34.85-5.87-34.85-30.9 0-8.22 5.32-12.4 15.8-12.4h50.61c4.03 0 16.27 0 16.27 12.4v15.03c0 10.62-12.74 16.46-35.88 16.46z"/></g></g></svg>