<svg id="&#x421;&#x43B;&#x43E;&#x439;_1" enable-background="new 0 0 16 16" viewBox="0 0 16 16" xmlns="http://www.w3.org/2000/svg"><path d="m12 4.125h-1.5c-.3447266 0-.625-.2802734-.625-.625v-3c0-.2070313-.1679688-.375-.375-.375h-3c-.2070313 0-.375.1679688-.375.375v3c0 .3447266-.2802734.625-.625.625h-1.5c-.7578125 0-1.375.6166992-1.375 1.375v2c0 .2070313.1679688.375.375.375h.125v6.625c0 .1420898.0800781.2719727.2070313.3354492l2 1c.0527343.0263672.1103515.0395508.1679687.0395508.0683594 0 .1367188-.0185547.1972656-.0561523.1103516-.0683594.1777344-.1889649.1777344-.3188477v-7.625h.125c.1416016 0 .2714844-.0800781.3349609-.2075195.4853516-.9697266.7939454-1.2924805 1.6650391-1.2924805s1.1796875.3227539 1.6650391 1.2924805c.0634765.1274414.1933593.2075195.3349609.2075195h.125v7.625c0 .1298828.0673828.2504883.1777344.3188477.0605469.0375976.1289062.0561523.1972656.0561523.0576172 0 .1152344-.0131836.1679688-.0395508l2-1c.1269531-.0634765.2070312-.1933594.2070312-.3354492v-6.625h.125c.2070313 0 .375-.1679688.375-.375v-2c0-.7583008-.6171875-1.375-1.375-1.375zm-6.875 10.7680664-1.25-.625v-6.3930664h1.25zm2.875-9.2680664c-1.2724609 0-1.7773438.6362305-2.2294922 1.5h-2.3955078v-1.625c0-.3447266.2802734-.625.625-.625h1.5c.7578125 0 1.375-.6166992 1.375-1.375v-2.625h2.25v2.625c0 .7583008.6171875 1.375 1.375 1.375h1.5c.3447266 0 .625.2802734.625.625v1.625h-2.3955078c-.4521484-.8637695-.9570313-1.5-2.2294922-1.5zm4.125 8.6430664-1.25.625v-7.0180664h1.25z" fill="rgb(0,0,0)"/></svg>